<svg id="visual" viewBox="0 0 300 50" width="300" height="50" xmlns="http://www.w3.org/2000/svg" xmlns:xlink="http://www.w3.org/1999/xlink" version="1.1"><path d="M0 15L5.5 15.3C11 15.7 22 16.3 33.2 14.3C44.3 12.3 55.7 7.7 66.8 6.5C78 5.3 89 7.7 100 10.7C111 13.7 122 17.3 133.2 18C144.3 18.7 155.7 16.3 166.8 16C178 15.7 189 17.3 200 20C211 22.7 222 26.3 233.2 28.7C244.3 31 255.7 32 266.8 32.2C278 32.3 289 31.7 294.5 31.3L300 31L300 0L294.5 0C289 0 278 0 266.8 0C255.7 0 244.3 0 233.2 0C222 0 211 0 200 0C189 0 178 0 166.8 0C155.7 0 144.3 0 133.2 0C122 0 111 0 100 0C89 0 78 0 66.8 0C55.7 0 44.3 0 33.2 0C22 0 11 0 5.5 0L0 0Z" fill="#ee9b57" stroke-linecap="round" stroke-linejoin="miter"></path></svg>